<?xml version="1.0" encoding="us-ascii" standalone="no"?><svg xmlns="http://www.w3.org/2000/svg" xmlns:xlink="http://www.w3.org/1999/xlink" contentStyleType="text/css" height="386px" preserveAspectRatio="none" style="width:739px;height:386px;background:#FFFFFF;" version="1.1" viewBox="0 0 739 386" width="739px" zoomAndPan="magnify"><defs/><g><!--class H2ConnConfig--><g id="elem_H2ConnConfig"><rect fill="#F1F1F1" height="48" id="H2ConnConfig" rx="2.5" ry="2.5" style="stroke:#181818;stroke-width:0.5;" width="134" x="7" y="115"/><ellipse cx="22" cy="131" fill="#ADD1B2" rx="11" ry="11" style="stroke:#181818;stroke-width:1.0;"/><path d="M24.3438,126.6719 C23.4063,126.2344 22.8125,126.0938 21.9375,126.0938 C19.3125,126.0938 17.3125,128.1719 17.3125,130.8906 L17.3125,132.0156 C17.3125,134.5938 19.4219,136.4844 22.3125,136.4844 C23.5313,136.4844 24.6875,136.1875 25.4375,135.6406 C26.0156,135.2344 26.3438,134.7813 26.3438,134.3906 C26.3438,133.9375 25.9531,133.5469 25.4844,133.5469 C25.2656,133.5469 25.0625,133.625 24.875,133.8125 C24.4219,134.2969 24.4219,134.2969 24.2344,134.3906 C23.8125,134.6563 23.125,134.7813 22.3594,134.7813 C20.3125,134.7813 19.0156,133.6875 19.0156,131.9844 L19.0156,130.8906 C19.0156,129.1094 20.2656,127.7969 22,127.7969 C22.5781,127.7969 23.1875,127.9531 23.6563,128.2031 C24.1406,128.4844 24.3125,128.7031 24.4063,129.1094 C24.4688,129.5156 24.5,129.6406 24.6406,129.7656 C24.7813,129.9063 25.0156,130.0156 25.2344,130.0156 C25.5,130.0156 25.7656,129.875 25.9375,129.6563 C26.0469,129.5 26.0781,129.3125 26.0781,128.8906 L26.0781,127.4688 C26.0781,127.0313 26.0625,126.9063 25.9688,126.75 C25.8125,126.4844 25.5313,126.3438 25.2344,126.3438 C24.9375,126.3438 24.7344,126.4375 24.5156,126.75 L24.3438,126.6719 Z " fill="#000000"/><text fill="#000000" font-family="sans-serif" font-size="14" lengthAdjust="spacing" textLength="102" x="36" y="135.8467">H2ConnConfig</text><line style="stroke:#181818;stroke-width:0.5;" x1="8" x2="140" y1="147" y2="147"/><line style="stroke:#181818;stroke-width:0.5;" x1="8" x2="140" y1="155" y2="155"/></g><!--class ConnConfig--><g id="elem_ConnConfig"><rect fill="#F1F1F1" height="48" id="ConnConfig" rx="2.5" ry="2.5" style="stroke:#181818;stroke-width:0.5;" width="116" x="16" y="223"/><ellipse cx="31" cy="239" fill="#ADD1B2" rx="11" ry="11" style="stroke:#181818;stroke-width:1.0;"/><path d="M33.3438,234.6719 C32.4063,234.2344 31.8125,234.0938 30.9375,234.0938 C28.3125,234.0938 26.3125,236.1719 26.3125,238.8906 L26.3125,240.0156 C26.3125,242.5938 28.4219,244.4844 31.3125,244.4844 C32.5313,244.4844 33.6875,244.1875 34.4375,243.6406 C35.0156,243.2344 35.3438,242.7813 35.3438,242.3906 C35.3438,241.9375 34.9531,241.5469 34.4844,241.5469 C34.2656,241.5469 34.0625,241.625 33.875,241.8125 C33.4219,242.2969 33.4219,242.2969 33.2344,242.3906 C32.8125,242.6563 32.125,242.7813 31.3594,242.7813 C29.3125,242.7813 28.0156,241.6875 28.0156,239.9844 L28.0156,238.8906 C28.0156,237.1094 29.2656,235.7969 31,235.7969 C31.5781,235.7969 32.1875,235.9531 32.6563,236.2031 C33.1406,236.4844 33.3125,236.7031 33.4063,237.1094 C33.4688,237.5156 33.5,237.6406 33.6406,237.7656 C33.7813,237.9063 34.0156,238.0156 34.2344,238.0156 C34.5,238.0156 34.7656,237.875 34.9375,237.6563 C35.0469,237.5 35.0781,237.3125 35.0781,236.8906 L35.0781,235.4688 C35.0781,235.0313 35.0625,234.9063 34.9688,234.75 C34.8125,234.4844 34.5313,234.3438 34.2344,234.3438 C33.9375,234.3438 33.7344,234.4375 33.5156,234.75 L33.3438,234.6719 Z " fill="#000000"/><text fill="#000000" font-family="sans-serif" font-size="14" lengthAdjust="spacing" textLength="84" x="45" y="243.8467">ConnConfig</text><line style="stroke:#181818;stroke-width:0.5;" x1="17" x2="131" y1="255" y2="255"/><line style="stroke:#181818;stroke-width:0.5;" x1="17" x2="131" y1="263" y2="263"/></g><!--class H2ConnConfiguration--><g id="elem_H2ConnConfiguration"><rect fill="#F1F1F1" height="48" id="H2ConnConfiguration" rx="2.5" ry="2.5" style="stroke:#181818;stroke-width:0.5;" width="185" x="56.5" y="7"/><ellipse cx="71.5" cy="23" fill="#ADD1B2" rx="11" ry="11" style="stroke:#181818;stroke-width:1.0;"/><path d="M73.8438,18.6719 C72.9063,18.2344 72.3125,18.0938 71.4375,18.0938 C68.8125,18.0938 66.8125,20.1719 66.8125,22.8906 L66.8125,24.0156 C66.8125,26.5938 68.9219,28.4844 71.8125,28.4844 C73.0313,28.4844 74.1875,28.1875 74.9375,27.6406 C75.5156,27.2344 75.8438,26.7813 75.8438,26.3906 C75.8438,25.9375 75.4531,25.5469 74.9844,25.5469 C74.7656,25.5469 74.5625,25.625 74.375,25.8125 C73.9219,26.2969 73.9219,26.2969 73.7344,26.3906 C73.3125,26.6563 72.625,26.7813 71.8594,26.7813 C69.8125,26.7813 68.5156,25.6875 68.5156,23.9844 L68.5156,22.8906 C68.5156,21.1094 69.7656,19.7969 71.5,19.7969 C72.0781,19.7969 72.6875,19.9531 73.1563,20.2031 C73.6406,20.4844 73.8125,20.7031 73.9063,21.1094 C73.9688,21.5156 74,21.6406 74.1406,21.7656 C74.2813,21.9063 74.5156,22.0156 74.7344,22.0156 C75,22.0156 75.2656,21.875 75.4375,21.6563 C75.5469,21.5 75.5781,21.3125 75.5781,20.8906 L75.5781,19.4688 C75.5781,19.0313 75.5625,18.9063 75.4688,18.75 C75.3125,18.4844 75.0313,18.3438 74.7344,18.3438 C74.4375,18.3438 74.2344,18.4375 74.0156,18.75 L73.8438,18.6719 Z " fill="#000000"/><text fill="#000000" font-family="sans-serif" font-size="14" lengthAdjust="spacing" textLength="153" x="85.5" y="27.8467">H2ConnConfiguration</text><line style="stroke:#181818;stroke-width:0.5;" x1="57.5" x2="240.5" y1="39" y2="39"/><line style="stroke:#181818;stroke-width:0.5;" x1="57.5" x2="240.5" y1="47" y2="47"/></g><!--class ConnUtil--><g id="elem_ConnUtil"><rect fill="#F1F1F1" height="48" id="ConnUtil" rx="2.5" ry="2.5" style="stroke:#181818;stroke-width:0.5;" width="93" x="176.5" y="115"/><ellipse cx="191.5" cy="131" fill="#ADD1B2" rx="11" ry="11" style="stroke:#181818;stroke-width:1.0;"/><path d="M193.8438,126.6719 C192.9063,126.2344 192.3125,126.0938 191.4375,126.0938 C188.8125,126.0938 186.8125,128.1719 186.8125,130.8906 L186.8125,132.0156 C186.8125,134.5938 188.9219,136.4844 191.8125,136.4844 C193.0313,136.4844 194.1875,136.1875 194.9375,135.6406 C195.5156,135.2344 195.8438,134.7813 195.8438,134.3906 C195.8438,133.9375 195.4531,133.5469 194.9844,133.5469 C194.7656,133.5469 194.5625,133.625 194.375,133.8125 C193.9219,134.2969 193.9219,134.2969 193.7344,134.3906 C193.3125,134.6563 192.625,134.7813 191.8594,134.7813 C189.8125,134.7813 188.5156,133.6875 188.5156,131.9844 L188.5156,130.8906 C188.5156,129.1094 189.7656,127.7969 191.5,127.7969 C192.0781,127.7969 192.6875,127.9531 193.1563,128.2031 C193.6406,128.4844 193.8125,128.7031 193.9063,129.1094 C193.9688,129.5156 194,129.6406 194.1406,129.7656 C194.2813,129.9063 194.5156,130.0156 194.7344,130.0156 C195,130.0156 195.2656,129.875 195.4375,129.6563 C195.5469,129.5 195.5781,129.3125 195.5781,128.8906 L195.5781,127.4688 C195.5781,127.0313 195.5625,126.9063 195.4688,126.75 C195.3125,126.4844 195.0313,126.3438 194.7344,126.3438 C194.4375,126.3438 194.2344,126.4375 194.0156,126.75 L193.8438,126.6719 Z " fill="#000000"/><text fill="#000000" font-family="sans-serif" font-size="14" lengthAdjust="spacing" textLength="61" x="205.5" y="135.8467">ConnUtil</text><line style="stroke:#181818;stroke-width:0.5;" x1="177.5" x2="268.5" y1="147" y2="147"/><line style="stroke:#181818;stroke-width:0.5;" x1="177.5" x2="268.5" y1="155" y2="155"/></g><!--class EmployeeController--><g id="elem_EmployeeController"><rect fill="#F1F1F1" height="48" id="EmployeeController" rx="2.5" ry="2.5" style="stroke:#181818;stroke-width:0.5;" width="177" x="446.5" y="7"/><ellipse cx="461.5" cy="23" fill="#ADD1B2" rx="11" ry="11" style="stroke:#181818;stroke-width:1.0;"/><path d="M463.8438,18.6719 C462.9063,18.2344 462.3125,18.0938 461.4375,18.0938 C458.8125,18.0938 456.8125,20.1719 456.8125,22.8906 L456.8125,24.0156 C456.8125,26.5938 458.9219,28.4844 461.8125,28.4844 C463.0313,28.4844 464.1875,28.1875 464.9375,27.6406 C465.5156,27.2344 465.8438,26.7813 465.8438,26.3906 C465.8438,25.9375 465.4531,25.5469 464.9844,25.5469 C464.7656,25.5469 464.5625,25.625 464.375,25.8125 C463.9219,26.2969 463.9219,26.2969 463.7344,26.3906 C463.3125,26.6563 462.625,26.7813 461.8594,26.7813 C459.8125,26.7813 458.5156,25.6875 458.5156,23.9844 L458.5156,22.8906 C458.5156,21.1094 459.7656,19.7969 461.5,19.7969 C462.0781,19.7969 462.6875,19.9531 463.1563,20.2031 C463.6406,20.4844 463.8125,20.7031 463.9063,21.1094 C463.9688,21.5156 464,21.6406 464.1406,21.7656 C464.2813,21.9063 464.5156,22.0156 464.7344,22.0156 C465,22.0156 465.2656,21.875 465.4375,21.6563 C465.5469,21.5 465.5781,21.3125 465.5781,20.8906 L465.5781,19.4688 C465.5781,19.0313 465.5625,18.9063 465.4688,18.75 C465.3125,18.4844 465.0313,18.3438 464.7344,18.3438 C464.4375,18.3438 464.2344,18.4375 464.0156,18.75 L463.8438,18.6719 Z " fill="#000000"/><text fill="#000000" font-family="sans-serif" font-size="14" lengthAdjust="spacing" textLength="145" x="475.5" y="27.8467">EmployeeController</text><line style="stroke:#181818;stroke-width:0.5;" x1="447.5" x2="622.5" y1="39" y2="39"/><line style="stroke:#181818;stroke-width:0.5;" x1="447.5" x2="622.5" y1="47" y2="47"/></g><!--class DataDto--><g id="elem_DataDto"><rect fill="#F1F1F1" height="48" id="DataDto" rx="2.5" ry="2.5" style="stroke:#181818;stroke-width:0.5;" width="93" x="312.5" y="115"/><ellipse cx="327.5" cy="131" fill="#ADD1B2" rx="11" ry="11" style="stroke:#181818;stroke-width:1.0;"/><path d="M329.8438,126.6719 C328.9063,126.2344 328.3125,126.0938 327.4375,126.0938 C324.8125,126.0938 322.8125,128.1719 322.8125,130.8906 L322.8125,132.0156 C322.8125,134.5938 324.9219,136.4844 327.8125,136.4844 C329.0313,136.4844 330.1875,136.1875 330.9375,135.6406 C331.5156,135.2344 331.8438,134.7813 331.8438,134.3906 C331.8438,133.9375 331.4531,133.5469 330.9844,133.5469 C330.7656,133.5469 330.5625,133.625 330.375,133.8125 C329.9219,134.2969 329.9219,134.2969 329.7344,134.3906 C329.3125,134.6563 328.625,134.7813 327.8594,134.7813 C325.8125,134.7813 324.5156,133.6875 324.5156,131.9844 L324.5156,130.8906 C324.5156,129.1094 325.7656,127.7969 327.5,127.7969 C328.0781,127.7969 328.6875,127.9531 329.1563,128.2031 C329.6406,128.4844 329.8125,128.7031 329.9063,129.1094 C329.9688,129.5156 330,129.6406 330.1406,129.7656 C330.2813,129.9063 330.5156,130.0156 330.7344,130.0156 C331,130.0156 331.2656,129.875 331.4375,129.6563 C331.5469,129.5 331.5781,129.3125 331.5781,128.8906 L331.5781,127.4688 C331.5781,127.0313 331.5625,126.9063 331.4688,126.75 C331.3125,126.4844 331.0313,126.3438 330.7344,126.3438 C330.4375,126.3438 330.2344,126.4375 330.0156,126.75 L329.8438,126.6719 Z " fill="#000000"/><text fill="#000000" font-family="sans-serif" font-size="14" lengthAdjust="spacing" textLength="61" x="341.5" y="135.8467">DataDto</text><line style="stroke:#181818;stroke-width:0.5;" x1="313.5" x2="404.5" y1="147" y2="147"/><line style="stroke:#181818;stroke-width:0.5;" x1="313.5" x2="404.5" y1="155" y2="155"/></g><!--class EmployeeServiceImpl--><g id="elem_EmployeeServiceImpl"><rect fill="#F1F1F1" height="48" id="EmployeeServiceImpl" rx="2.5" ry="2.5" style="stroke:#181818;stroke-width:0.5;" width="189" x="440.5" y="115"/><ellipse cx="455.5" cy="131" fill="#ADD1B2" rx="11" ry="11" style="stroke:#181818;stroke-width:1.0;"/><path d="M457.8438,126.6719 C456.9063,126.2344 456.3125,126.0938 455.4375,126.0938 C452.8125,126.0938 450.8125,128.1719 450.8125,130.8906 L450.8125,132.0156 C450.8125,134.5938 452.9219,136.4844 455.8125,136.4844 C457.0313,136.4844 458.1875,136.1875 458.9375,135.6406 C459.5156,135.2344 459.8438,134.7813 459.8438,134.3906 C459.8438,133.9375 459.4531,133.5469 458.9844,133.5469 C458.7656,133.5469 458.5625,133.625 458.375,133.8125 C457.9219,134.2969 457.9219,134.2969 457.7344,134.3906 C457.3125,134.6563 456.625,134.7813 455.8594,134.7813 C453.8125,134.7813 452.5156,133.6875 452.5156,131.9844 L452.5156,130.8906 C452.5156,129.1094 453.7656,127.7969 455.5,127.7969 C456.0781,127.7969 456.6875,127.9531 457.1563,128.2031 C457.6406,128.4844 457.8125,128.7031 457.9063,129.1094 C457.9688,129.5156 458,129.6406 458.1406,129.7656 C458.2813,129.9063 458.5156,130.0156 458.7344,130.0156 C459,130.0156 459.2656,129.875 459.4375,129.6563 C459.5469,129.5 459.5781,129.3125 459.5781,128.8906 L459.5781,127.4688 C459.5781,127.0313 459.5625,126.9063 459.4688,126.75 C459.3125,126.4844 459.0313,126.3438 458.7344,126.3438 C458.4375,126.3438 458.2344,126.4375 458.0156,126.75 L457.8438,126.6719 Z " fill="#000000"/><text fill="#000000" font-family="sans-serif" font-size="14" lengthAdjust="spacing" textLength="157" x="469.5" y="135.8467">EmployeeServiceImpl</text><line style="stroke:#181818;stroke-width:0.5;" x1="441.5" x2="628.5" y1="147" y2="147"/><line style="stroke:#181818;stroke-width:0.5;" x1="441.5" x2="628.5" y1="155" y2="155"/></g><!--class EmployeeDto--><g id="elem_EmployeeDto"><rect fill="#F1F1F1" height="48" id="EmployeeDto" rx="2.5" ry="2.5" style="stroke:#181818;stroke-width:0.5;" width="131" x="601.5" y="331"/><ellipse cx="616.5" cy="347" fill="#ADD1B2" rx="11" ry="11" style="stroke:#181818;stroke-width:1.0;"/><path d="M618.8438,342.6719 C617.9063,342.2344 617.3125,342.0938 616.4375,342.0938 C613.8125,342.0938 611.8125,344.1719 611.8125,346.8906 L611.8125,348.0156 C611.8125,350.5938 613.9219,352.4844 616.8125,352.4844 C618.0313,352.4844 619.1875,352.1875 619.9375,351.6406 C620.5156,351.2344 620.8438,350.7813 620.8438,350.3906 C620.8438,349.9375 620.4531,349.5469 619.9844,349.5469 C619.7656,349.5469 619.5625,349.625 619.375,349.8125 C618.9219,350.2969 618.9219,350.2969 618.7344,350.3906 C618.3125,350.6563 617.625,350.7813 616.8594,350.7813 C614.8125,350.7813 613.5156,349.6875 613.5156,347.9844 L613.5156,346.8906 C613.5156,345.1094 614.7656,343.7969 616.5,343.7969 C617.0781,343.7969 617.6875,343.9531 618.1563,344.2031 C618.6406,344.4844 618.8125,344.7031 618.9063,345.1094 C618.9688,345.5156 619,345.6406 619.1406,345.7656 C619.2813,345.9063 619.5156,346.0156 619.7344,346.0156 C620,346.0156 620.2656,345.875 620.4375,345.6563 C620.5469,345.5 620.5781,345.3125 620.5781,344.8906 L620.5781,343.4688 C620.5781,343.0313 620.5625,342.9063 620.4688,342.75 C620.3125,342.4844 620.0313,342.3438 619.7344,342.3438 C619.4375,342.3438 619.2344,342.4375 619.0156,342.75 L618.8438,342.6719 Z " fill="#000000"/><text fill="#000000" font-family="sans-serif" font-size="14" lengthAdjust="spacing" textLength="99" x="630.5" y="351.8467">EmployeeDto</text><line style="stroke:#181818;stroke-width:0.5;" x1="602.5" x2="731.5" y1="363" y2="363"/><line style="stroke:#181818;stroke-width:0.5;" x1="602.5" x2="731.5" y1="371" y2="371"/></g><!--class EmployeeService--><g id="elem_EmployeeService"><rect fill="#F1F1F1" height="48" id="EmployeeService" rx="2.5" ry="2.5" style="stroke:#181818;stroke-width:0.5;" width="157" x="456.5" y="223"/><ellipse cx="471.5" cy="239" fill="#ADD1B2" rx="11" ry="11" style="stroke:#181818;stroke-width:1.0;"/><path d="M473.8438,234.6719 C472.9063,234.2344 472.3125,234.0938 471.4375,234.0938 C468.8125,234.0938 466.8125,236.1719 466.8125,238.8906 L466.8125,240.0156 C466.8125,242.5938 468.9219,244.4844 471.8125,244.4844 C473.0313,244.4844 474.1875,244.1875 474.9375,243.6406 C475.5156,243.2344 475.8438,242.7813 475.8438,242.3906 C475.8438,241.9375 475.4531,241.5469 474.9844,241.5469 C474.7656,241.5469 474.5625,241.625 474.375,241.8125 C473.9219,242.2969 473.9219,242.2969 473.7344,242.3906 C473.3125,242.6563 472.625,242.7813 471.8594,242.7813 C469.8125,242.7813 468.5156,241.6875 468.5156,239.9844 L468.5156,238.8906 C468.5156,237.1094 469.7656,235.7969 471.5,235.7969 C472.0781,235.7969 472.6875,235.9531 473.1563,236.2031 C473.6406,236.4844 473.8125,236.7031 473.9063,237.1094 C473.9688,237.5156 474,237.6406 474.1406,237.7656 C474.2813,237.9063 474.5156,238.0156 474.7344,238.0156 C475,238.0156 475.2656,237.875 475.4375,237.6563 C475.5469,237.5 475.5781,237.3125 475.5781,236.8906 L475.5781,235.4688 C475.5781,235.0313 475.5625,234.9063 475.4688,234.75 C475.3125,234.4844 475.0313,234.3438 474.7344,234.3438 C474.4375,234.3438 474.2344,234.4375 474.0156,234.75 L473.8438,234.6719 Z " fill="#000000"/><text fill="#000000" font-family="sans-serif" font-size="14" lengthAdjust="spacing" textLength="125" x="485.5" y="243.8467">EmployeeService</text><line style="stroke:#181818;stroke-width:0.5;" x1="457.5" x2="612.5" y1="255" y2="255"/><line style="stroke:#181818;stroke-width:0.5;" x1="457.5" x2="612.5" y1="263" y2="263"/></g><!--class Employee--><g id="elem_Employee"><rect fill="#F1F1F1" height="48" id="Employee" rx="2.5" ry="2.5" style="stroke:#181818;stroke-width:0.5;" width="104" x="205" y="331"/><ellipse cx="220" cy="347" fill="#ADD1B2" rx="11" ry="11" style="stroke:#181818;stroke-width:1.0;"/><path d="M222.3438,342.6719 C221.4063,342.2344 220.8125,342.0938 219.9375,342.0938 C217.3125,342.0938 215.3125,344.1719 215.3125,346.8906 L215.3125,348.0156 C215.3125,350.5938 217.4219,352.4844 220.3125,352.4844 C221.5313,352.4844 222.6875,352.1875 223.4375,351.6406 C224.0156,351.2344 224.3438,350.7813 224.3438,350.3906 C224.3438,349.9375 223.9531,349.5469 223.4844,349.5469 C223.2656,349.5469 223.0625,349.625 222.875,349.8125 C222.4219,350.2969 222.4219,350.2969 222.2344,350.3906 C221.8125,350.6563 221.125,350.7813 220.3594,350.7813 C218.3125,350.7813 217.0156,349.6875 217.0156,347.9844 L217.0156,346.8906 C217.0156,345.1094 218.2656,343.7969 220,343.7969 C220.5781,343.7969 221.1875,343.9531 221.6563,344.2031 C222.1406,344.4844 222.3125,344.7031 222.4063,345.1094 C222.4688,345.5156 222.5,345.6406 222.6406,345.7656 C222.7813,345.9063 223.0156,346.0156 223.2344,346.0156 C223.5,346.0156 223.7656,345.875 223.9375,345.6563 C224.0469,345.5 224.0781,345.3125 224.0781,344.8906 L224.0781,343.4688 C224.0781,343.0313 224.0625,342.9063 223.9688,342.75 C223.8125,342.4844 223.5313,342.3438 223.2344,342.3438 C222.9375,342.3438 222.7344,342.4375 222.5156,342.75 L222.3438,342.6719 Z " fill="#000000"/><text fill="#000000" font-family="sans-serif" font-size="14" lengthAdjust="spacing" textLength="72" x="234" y="351.8467">Employee</text><line style="stroke:#181818;stroke-width:0.5;" x1="206" x2="308" y1="363" y2="363"/><line style="stroke:#181818;stroke-width:0.5;" x1="206" x2="308" y1="371" y2="371"/></g><!--class EmployeeRepository--><g id="elem_EmployeeRepository"><rect fill="#F1F1F1" height="48" id="EmployeeRepository" rx="2.5" ry="2.5" style="stroke:#181818;stroke-width:0.5;" width="183" x="238.5" y="223"/><ellipse cx="253.5" cy="239" fill="#ADD1B2" rx="11" ry="11" style="stroke:#181818;stroke-width:1.0;"/><path d="M255.8438,234.6719 C254.9063,234.2344 254.3125,234.0938 253.4375,234.0938 C250.8125,234.0938 248.8125,236.1719 248.8125,238.8906 L248.8125,240.0156 C248.8125,242.5938 250.9219,244.4844 253.8125,244.4844 C255.0313,244.4844 256.1875,244.1875 256.9375,243.6406 C257.5156,243.2344 257.8438,242.7813 257.8438,242.3906 C257.8438,241.9375 257.4531,241.5469 256.9844,241.5469 C256.7656,241.5469 256.5625,241.625 256.375,241.8125 C255.9219,242.2969 255.9219,242.2969 255.7344,242.3906 C255.3125,242.6563 254.625,242.7813 253.8594,242.7813 C251.8125,242.7813 250.5156,241.6875 250.5156,239.9844 L250.5156,238.8906 C250.5156,237.1094 251.7656,235.7969 253.5,235.7969 C254.0781,235.7969 254.6875,235.9531 255.1563,236.2031 C255.6406,236.4844 255.8125,236.7031 255.9063,237.1094 C255.9688,237.5156 256,237.6406 256.1406,237.7656 C256.2813,237.9063 256.5156,238.0156 256.7344,238.0156 C257,238.0156 257.2656,237.875 257.4375,237.6563 C257.5469,237.5 257.5781,237.3125 257.5781,236.8906 L257.5781,235.4688 C257.5781,235.0313 257.5625,234.9063 257.4688,234.75 C257.3125,234.4844 257.0313,234.3438 256.7344,234.3438 C256.4375,234.3438 256.2344,234.4375 256.0156,234.75 L255.8438,234.6719 Z " fill="#000000"/><text fill="#000000" font-family="sans-serif" font-size="14" lengthAdjust="spacing" textLength="151" x="267.5" y="243.8467">EmployeeRepository</text><line style="stroke:#181818;stroke-width:0.5;" x1="239.5" x2="420.5" y1="255" y2="255"/><line style="stroke:#181818;stroke-width:0.5;" x1="239.5" x2="420.5" y1="263" y2="263"/></g><!--link H2ConnConfig to ConnConfig--><g id="link_H2ConnConfig_ConnConfig"><path codeLine="1" d="M74,163 C74,180.658 74,186.941 74,204.678 " fill="none" id="H2ConnConfig-to-ConnConfig" style="stroke:#181818;stroke-width:1.0;"/><polygon fill="none" points="74,222.678,80,204.678,68,204.678,74,222.678" style="stroke:#181818;stroke-width:1.0;"/></g><!--reverse link H2ConnConfiguration to H2ConnConfig--><g id="link_H2ConnConfiguration_H2ConnConfig"><path codeLine="2" d="M125.7949,64.7959 C113.3009,82.4539 103.0513,96.941 90.5011,114.678 " fill="none" id="H2ConnConfiguration-backto-H2ConnConfig" style="stroke:#181818;stroke-width:1.0;"/><polygon fill="none" points="132.726,55,125.9951,57.5876,125.7949,64.7959,132.5257,62.2083,132.726,55" style="stroke:#181818;stroke-width:1.0;"/></g><!--link H2ConnConfiguration to ConnUtil--><g id="link_H2ConnConfiguration_ConnUtil"><path codeLine="3" d="M165.057,55 C177.384,72.658 190.9014,92.0213 203.2844,109.7583 " fill="none" id="H2ConnConfiguration-to-ConnUtil" style="stroke:#181818;stroke-width:1.0;stroke-dasharray:7.0,7.0;"/><polygon fill="#181818" points="206.719,114.678,204.8468,105.0087,203.8568,110.5783,198.2872,109.5883,206.719,114.678" style="stroke:#181818;stroke-width:1.0;"/></g><!--link EmployeeController to DataDto--><g id="link_EmployeeController_DataDto"><path codeLine="5" d="M496.811,55 C467.391,72.719 432.0358,94.0124 402.5578,111.7664 " fill="none" id="EmployeeController-to-DataDto" style="stroke:#181818;stroke-width:1.0;stroke-dasharray:7.0,7.0;"/><polygon fill="#181818" points="397.418,114.862,407.1914,113.6451,401.7012,112.2823,403.0639,106.7921,397.418,114.862" style="stroke:#181818;stroke-width:1.0;"/></g><!--reverse link EmployeeController to EmployeeServiceImpl--><g id="link_EmployeeController_EmployeeServiceImpl"><path codeLine="6" d="M535,67 C535,84.658 535,96.941 535,114.678 " fill="none" id="EmployeeController-backto-EmployeeServiceImpl" style="stroke:#181818;stroke-width:1.0;"/><polygon fill="none" points="535,55,531,61,535,67,539,61,535,55" style="stroke:#181818;stroke-width:1.0;"/></g><!--reverse link EmployeeController to EmployeeDto--><g id="link_EmployeeController_EmployeeDto"><path codeLine="7" d="M590.8459,61.2331 C614.2709,75.3911 630.93,89.512 647,115 C690.082,183.33 679.353,285.3503 671.63,330.7584 " fill="none" id="EmployeeController-backto-EmployeeDto" style="stroke:#181818;stroke-width:1.0;"/><polygon fill="none" points="580.576,55.026,583.6419,61.5529,590.8459,61.2331,587.78,54.7062,580.576,55.026" style="stroke:#181818;stroke-width:1.0;"/></g><!--reverse link EmployeeService to EmployeeDto--><g id="link_EmployeeService_EmployeeDto"><path codeLine="9" d="M572.9985,278.5138 C594.9875,296.1722 615.87,312.9408 637.958,330.6784 " fill="none" id="EmployeeService-backto-EmployeeDto" style="stroke:#181818;stroke-width:1.0;"/><polygon fill="none" points="563.642,271,565.8156,277.8757,572.9985,278.5138,570.8248,271.6381,563.642,271" style="stroke:#181818;stroke-width:1.0;"/></g><!--link EmployeeServiceImpl to Employee--><g id="link_EmployeeServiceImpl_Employee"><path codeLine="11" d="M440.23,162.092 C350.333,183.499 227.923,214.009 221,223 C196.393,254.956 217.3823,297.6863 236.2513,325.8487 " fill="none" id="EmployeeServiceImpl-to-Employee" style="stroke:#181818;stroke-width:1.0;stroke-dasharray:7.0,7.0;"/><polygon fill="#181818" points="239.591,330.8333,237.9045,321.1299,236.8079,326.6795,231.2584,325.5829,239.591,330.8333" style="stroke:#181818;stroke-width:1.0;"/></g><!--link EmployeeServiceImpl to EmployeeService--><g id="link_EmployeeServiceImpl_EmployeeService"><path codeLine="12" d="M535,163 C535,180.658 535,186.941 535,204.678 " fill="none" id="EmployeeServiceImpl-to-EmployeeService" style="stroke:#181818;stroke-width:1.0;"/><polygon fill="none" points="535,222.678,541,204.678,529,204.678,535,222.678" style="stroke:#181818;stroke-width:1.0;"/></g><!--reverse link EmployeeServiceImpl to EmployeeRepository--><g id="link_EmployeeServiceImpl_EmployeeRepository"><path codeLine="13" d="M479.8586,168.5116 C445.5906,186.2306 409.083,205.108 374.749,222.862 " fill="none" id="EmployeeServiceImpl-backto-EmployeeRepository" style="stroke:#181818;stroke-width:1.0;"/><polygon fill="none" points="490.518,163,483.3511,162.2027,479.8586,168.5116,487.0255,169.3089,490.518,163" style="stroke:#181818;stroke-width:1.0;"/></g><!--reverse link EmployeeServiceImpl to EmployeeDto--><g id="link_EmployeeServiceImpl_EmployeeDto"><path codeLine="14" d="M580.9373,170.3333 C601.2723,185.1423 615.83,198.966 631,223 C652.276,256.708 661.15,303.0012 664.724,330.5735 " fill="none" id="EmployeeServiceImpl-backto-EmployeeDto" style="stroke:#181818;stroke-width:1.0;"/><polygon fill="none" points="571.237,163.269,573.7324,170.0346,580.9373,170.3333,578.4419,163.5677,571.237,163.269" style="stroke:#181818;stroke-width:1.0;"/></g><!--link EmployeeRepository to Employee--><g id="link_EmployeeRepository_Employee"><path codeLine="16" d="M314.16,271 C301.999,288.6584 288.6802,307.9993 276.4642,325.7369 " fill="none" id="EmployeeRepository-to-Employee" style="stroke:#181818;stroke-width:1.0;stroke-dasharray:7.0,7.0;"/><polygon fill="#181818" points="273.061,330.6784,281.4601,325.535,275.897,326.5605,274.8715,320.9974,273.061,330.6784" style="stroke:#181818;stroke-width:1.0;"/></g><!--SRC=[yp1opi_B0-Aqp7G5NTqQEmK4dyi3IRAqAB4aCpzF8LzNLm5P7AiYFJs8EQ4bcJbSNAwv1JdvbQcfG96IeloSdDGYi0ANn994bv9yRD8WIs32mQb5PPd9gPv0BY6b8DEuqFGHL00o6EmUc3XM1U2WGPF0gX3Pkg3KWlpYp9Byeag2Ib5SXj27uZ00]--></g></svg>